<svg id="svg" version="1.1" xmlns="http://www.w3.org/2000/svg" xmlns:xlink="http://www.w3.org/1999/xlink" width="400" height="400" viewBox="0, 0, 400,400"><g id="svgg"><path id="path0" d="M192.200 64.377 C 189.552 64.812,188.200 65.478,187.567 66.662 C 187.280 67.198,186.225 68.254,185.223 69.009 C 181.601 71.738,181.009 72.274,176.241 77.142 C 173.578 79.860,168.970 84.475,166.000 87.398 C 163.030 90.321,160.168 93.155,159.640 93.696 C 158.538 94.826,145.174 108.196,143.703 109.640 C 143.165 110.168,139.603 113.750,135.788 117.600 C 127.201 126.263,126.263 127.201,117.600 135.788 C 113.750 139.603,110.168 143.165,109.640 143.703 C 98.215 155.340,94.741 158.800,94.482 158.800 C 94.310 158.800,92.228 161.050,89.855 163.800 C 87.483 166.550,85.382 168.800,85.188 168.800 C 84.668 168.800,82.923 171.989,82.603 173.522 C 82.303 174.957,79.681 178.000,78.743 178.000 C 77.338 178.000,76.327 191.361,77.168 198.810 C 77.774 204.182,77.756 204.132,79.523 205.302 C 81.093 206.341,83.001 209.676,84.040 213.200 C 84.596 215.083,85.235 216.000,85.991 216.000 C 87.098 216.000,88.941 217.404,90.854 219.705 C 93.282 222.624,94.441 223.167,100.934 224.426 C 105.765 225.363,106.877 225.746,108.458 227.024 C 110.184 228.417,115.236 228.644,117.150 227.413 C 119.101 226.158,122.300 225.127,129.015 223.589 L 134.631 222.302 135.365 220.528 C 136.177 218.562,137.155 217.765,139.658 217.026 C 141.164 216.581,141.390 216.347,141.857 214.746 C 142.474 212.629,143.656 211.414,145.818 210.673 C 147.027 210.259,147.574 209.762,148.140 208.565 C 149.818 205.015,152.292 203.792,155.395 204.977 C 158.872 206.305,158.574 201.569,158.800 259.000 L 159.000 309.800 160.094 311.229 C 161.370 312.898,163.464 317.789,163.815 319.920 C 164.399 323.475,165.756 326.487,167.346 327.756 C 170.017 329.887,170.832 330.909,171.321 332.737 C 171.663 334.017,172.071 334.613,172.797 334.895 C 175.511 335.949,176.487 336.471,178.268 337.822 C 179.331 338.629,180.464 339.714,180.786 340.234 C 182.643 343.228,209.659 344.043,218.464 341.370 C 218.830 341.260,219.394 340.764,219.718 340.268 C 220.739 338.710,224.775 335.883,226.663 335.403 C 228.368 334.970,228.516 334.822,229.176 332.871 C 230.001 330.432,230.926 329.290,232.673 328.551 C 234.441 327.802,235.318 326.007,236.604 320.500 C 237.253 317.724,239.225 313.502,240.543 312.068 L 241.400 311.136 241.600 259.868 C 241.787 211.899,241.845 208.509,242.506 207.182 C 244.533 203.116,249.701 203.449,252.068 207.799 C 252.924 209.371,253.529 209.935,255.112 210.633 C 257.317 211.606,258.400 212.856,258.400 214.427 C 258.400 215.724,259.300 216.520,261.471 217.138 C 263.309 217.662,265.116 219.486,265.453 221.156 C 265.651 222.140,265.988 222.277,271.332 223.535 C 278.283 225.173,281.374 226.142,283.200 227.257 C 284.917 228.305,290.670 228.394,291.442 227.384 C 292.174 226.426,295.259 225.262,298.829 224.597 C 303.639 223.702,308.053 222.328,308.314 221.646 C 308.438 221.324,308.784 220.777,309.084 220.431 C 309.384 220.084,310.081 219.225,310.632 218.521 C 311.233 217.755,312.454 216.937,313.677 216.481 C 315.644 215.747,315.746 215.633,316.460 213.360 C 317.595 209.744,319.328 206.702,320.838 205.673 C 322.645 204.442,322.669 204.383,323.168 199.909 C 324.146 191.138,323.314 178.755,321.683 177.800 C 320.586 177.158,318.000 174.411,317.996 173.883 C 317.985 172.490,315.779 168.961,313.517 166.715 C 312.123 165.332,310.184 163.144,309.208 161.854 C 308.231 160.564,306.990 159.219,306.450 158.865 C 305.074 157.963,291.786 144.662,291.490 143.889 C 291.356 143.540,290.325 142.527,289.199 141.637 C 288.073 140.747,283.968 136.756,280.076 132.769 C 276.184 128.781,272.110 124.682,271.023 123.659 C 269.935 122.637,266.669 119.370,263.765 116.400 C 260.861 113.430,257.971 110.499,257.342 109.886 C 256.714 109.274,252.870 105.450,248.800 101.390 C 239.897 92.507,241.739 94.343,229.564 82.219 C 224.051 76.730,219.042 71.870,218.431 71.419 C 214.221 68.313,213.295 67.524,212.821 66.639 C 211.671 64.490,199.591 63.165,192.200 64.377 " stroke="none" fill="#fcfbfb" fill-rule="evenodd"></path><path id="path1" d="M147.200 1.600 L 147.200 3.200 145.500 3.236 C 144.565 3.256,140.600 3.294,136.689 3.320 C 131.267 3.356,129.623 3.483,129.766 3.856 C 129.879 4.150,129.678 4.292,129.263 4.212 C 128.700 4.104,128.552 4.423,128.463 5.940 C 128.237 9.824,128.522 9.502,125.500 9.286 C 124.015 9.179,122.800 9.252,122.800 9.446 C 122.800 9.641,120.551 9.773,117.801 9.740 C 114.413 9.700,112.886 9.815,113.061 10.099 C 113.229 10.371,112.959 10.426,112.289 10.258 C 110.896 9.909,109.909 10.896,110.258 12.289 C 110.455 13.074,110.393 13.243,109.996 12.997 C 109.590 12.747,109.528 12.999,109.712 14.138 C 109.945 15.568,109.922 15.600,108.655 15.600 C 107.943 15.600,107.118 15.825,106.821 16.100 C 106.390 16.500,106.339 16.500,106.565 16.100 C 106.752 15.769,106.562 15.600,106.000 15.600 C 105.534 15.600,105.257 15.768,105.384 15.974 C 105.526 16.204,105.146 16.214,104.400 16.000 C 103.547 15.755,103.043 15.802,102.713 16.155 C 102.454 16.432,101.872 16.588,101.420 16.502 C 100.148 16.258,98.347 17.114,98.094 18.083 C 97.875 18.922,97.852 18.926,97.534 18.179 C 97.210 17.419,97.434 19.386,97.836 20.833 C 98.088 21.743,96.617 22.228,93.741 22.185 C 91.863 22.157,91.330 22.272,91.484 22.674 C 91.595 22.963,91.486 23.200,91.243 23.200 C 90.999 23.200,90.800 23.391,90.800 23.624 C 90.800 23.857,91.025 23.912,91.300 23.747 C 91.678 23.520,91.694 23.587,91.364 24.023 C 90.872 24.675,90.885 26.367,91.389 27.182 C 91.604 27.531,91.571 27.629,91.296 27.459 C 91.061 27.314,90.803 27.391,90.723 27.631 C 90.639 27.882,89.221 28.124,87.389 28.200 C 85.635 28.273,84.200 28.360,84.200 28.394 C 84.200 28.428,83.090 28.488,81.733 28.528 C 78.688 28.617,78.610 28.695,78.556 31.733 L 78.512 34.200 76.356 34.481 C 75.170 34.636,73.862 34.662,73.450 34.538 C 72.963 34.393,72.796 34.470,72.974 34.757 C 73.128 35.007,72.980 35.200,72.634 35.200 C 72.141 35.200,72.096 35.401,72.409 36.223 C 72.686 36.952,72.671 37.168,72.357 36.973 C 72.051 36.785,71.960 37.330,72.058 38.751 C 72.213 40.983,72.360 40.865,69.400 40.878 C 68.520 40.882,67.540 41.091,67.223 41.343 C 66.789 41.687,66.715 41.686,66.924 41.337 C 67.108 41.030,66.942 40.942,66.428 41.077 C 66.003 41.188,65.743 41.507,65.850 41.785 C 65.970 42.100,65.579 42.384,64.812 42.538 C 63.240 42.852,61.653 44.433,61.341 45.996 C 61.207 46.664,60.896 47.188,60.649 47.158 C 59.692 47.045,59.163 47.216,59.380 47.568 C 59.505 47.770,58.982 48.142,58.217 48.394 C 56.657 48.909,54.800 50.873,54.800 52.007 C 54.800 52.417,54.592 52.881,54.338 53.039 C 53.633 53.474,54.257 50.808,55.142 49.600 C 55.545 49.050,56.488 48.369,57.237 48.087 L 58.600 47.574 57.200 47.787 C 55.383 48.062,54.119 49.530,53.786 51.753 C 53.527 53.483,53.483 53.527,51.753 53.786 C 49.530 54.119,48.062 55.383,47.787 57.200 L 47.574 58.600 48.087 57.237 C 48.369 56.488,49.050 55.545,49.600 55.142 C 50.808 54.257,53.474 53.633,53.039 54.338 C 52.881 54.592,52.417 54.800,52.007 54.800 C 50.873 54.800,48.909 56.657,48.394 58.217 C 48.142 58.982,47.789 59.517,47.610 59.406 C 47.014 59.038,46.721 63.459,47.226 65.200 C 47.363 65.673,47.041 65.786,45.700 65.733 C 44.765 65.696,44.000 65.801,44.000 65.966 C 44.000 66.131,43.738 66.267,43.418 66.267 C 43.097 66.267,42.916 66.136,43.015 65.976 C 43.114 65.816,42.755 65.711,42.218 65.742 C 41.657 65.775,41.163 66.098,41.058 66.501 C 40.939 66.954,41.038 67.103,41.337 66.924 C 41.686 66.715,41.687 66.789,41.343 67.223 C 41.091 67.540,40.882 68.520,40.878 69.400 C 40.863 72.809,40.838 72.930,40.253 72.444 C 39.605 71.906,35.574 72.026,35.000 72.600 C 34.780 72.820,34.601 73.900,34.602 75.000 C 34.606 78.351,34.480 78.506,31.704 78.556 C 28.698 78.610,28.617 78.691,28.528 81.733 C 28.488 83.090,28.422 84.290,28.380 84.400 C 28.312 84.581,28.198 86.479,28.053 89.845 C 28.007 90.924,27.867 91.075,27.000 90.980 C 26.450 90.920,26.000 91.071,26.000 91.315 C 26.000 91.622,25.851 91.611,25.520 91.280 C 24.946 90.706,23.200 90.637,23.200 91.187 C 23.200 91.401,22.966 91.485,22.679 91.375 C 22.286 91.224,22.167 91.743,22.193 93.488 C 22.236 96.451,21.734 98.088,20.856 97.843 C 19.399 97.436,17.411 97.207,18.179 97.534 C 18.926 97.852,18.922 97.875,18.083 98.094 C 17.094 98.353,16.260 100.155,16.514 101.485 C 16.607 101.973,16.509 102.430,16.296 102.501 C 15.952 102.616,15.721 104.762,15.630 108.675 C 15.601 109.915,15.560 109.943,14.138 109.712 C 12.999 109.528,12.747 109.590,12.997 109.996 C 13.243 110.393,13.074 110.455,12.289 110.258 C 10.896 109.909,9.909 110.896,10.258 112.289 C 10.419 112.931,10.366 113.227,10.118 113.073 C 9.746 112.843,9.491 117.412,9.431 125.400 C 9.407 128.510,9.710 128.244,5.940 128.463 C 4.423 128.552,4.104 128.700,4.212 129.263 C 4.292 129.678,4.150 129.879,3.856 129.766 C 3.483 129.623,3.356 131.267,3.320 136.689 C 3.294 140.600,3.256 144.565,3.236 145.500 L 3.200 147.200 1.600 147.200 L 0.000 147.200 0.000 200.200 L 0.000 253.200 1.600 253.200 C 3.458 253.200,3.245 251.944,3.320 263.300 C 3.346 267.205,3.510 270.400,3.684 270.400 C 3.858 270.400,4.000 270.689,4.000 271.043 C 4.000 271.437,4.222 271.600,4.574 271.465 C 4.890 271.344,5.216 271.447,5.298 271.694 C 5.382 271.946,5.757 272.025,6.149 271.875 C 6.544 271.723,6.739 271.386,6.596 271.103 C 6.455 270.826,6.599 270.915,6.914 271.300 C 7.230 271.685,7.927 272.000,8.463 272.000 C 9.413 272.000,9.434 272.066,9.272 274.600 C 9.181 276.030,9.263 277.200,9.453 277.200 C 9.644 277.199,9.761 279.352,9.712 281.984 C 9.664 284.615,9.791 286.871,9.995 286.997 C 10.198 287.123,10.261 287.497,10.134 287.828 C 9.722 288.901,11.152 289.936,13.441 290.222 C 15.764 290.513,15.879 290.710,15.610 293.945 C 15.563 294.502,15.699 294.786,15.940 294.637 C 16.212 294.469,16.231 294.794,15.996 295.613 C 15.737 296.516,15.782 296.895,16.166 297.042 C 16.561 297.194,16.606 297.685,16.350 299.058 C 15.783 302.089,16.905 303.115,20.240 302.615 C 22.203 302.321,22.152 302.237,22.047 305.600 C 21.964 308.227,22.992 309.307,25.371 309.095 C 27.948 308.864,28.019 308.982,28.245 313.837 C 28.608 321.660,28.650 321.825,30.211 321.433 C 30.772 321.292,31.201 321.397,31.304 321.701 C 31.436 322.087,31.752 322.098,32.696 321.750 C 34.210 321.193,34.622 321.918,34.603 325.106 C 34.594 326.594,34.733 327.158,35.075 327.027 C 35.360 326.917,35.472 327.069,35.346 327.398 C 35.174 327.845,35.687 327.939,37.966 327.877 C 39.623 327.832,40.815 327.966,40.835 328.200 C 40.853 328.420,40.921 329.680,40.984 331.000 C 41.047 332.320,41.121 333.605,41.149 333.854 C 41.181 334.136,42.077 334.308,43.500 334.305 C 47.209 334.299,47.670 334.363,47.372 334.845 C 47.221 335.089,47.346 335.466,47.649 335.682 C 48.078 335.989,48.048 336.027,47.513 335.855 C 46.799 335.626,46.690 338.052,47.366 339.145 C 47.521 339.395,47.412 339.605,47.124 339.612 C 46.794 339.620,46.855 339.773,47.287 340.025 C 47.665 340.245,48.327 341.225,48.760 342.202 C 49.236 343.278,50.069 344.298,50.873 344.788 C 51.603 345.233,52.020 345.597,51.800 345.597 C 50.637 345.597,48.842 343.935,48.276 342.333 C 47.849 341.124,47.654 340.876,47.632 341.513 C 47.541 344.134,49.838 346.354,52.177 345.906 C 52.753 345.796,53.127 345.897,53.080 346.150 C 53.036 346.387,53.394 346.641,53.876 346.715 C 54.446 346.802,55.041 347.444,55.576 348.551 C 56.392 350.237,59.175 352.316,60.294 352.074 C 60.590 352.010,60.693 352.214,60.550 352.585 C 60.351 353.104,60.689 353.189,62.662 353.119 C 65.787 353.008,65.908 353.125,65.815 356.174 C 65.724 359.200,65.724 359.200,69.533 359.200 L 72.200 359.201 72.192 362.008 C 72.187 364.052,72.317 364.764,72.672 364.628 C 72.944 364.523,73.073 364.665,72.964 364.948 C 72.821 365.323,73.471 365.475,75.453 365.530 C 78.679 365.619,78.352 365.314,78.471 368.341 C 78.575 370.957,79.107 371.875,80.263 371.431 C 80.633 371.289,81.072 371.393,81.239 371.663 C 81.469 372.036,81.881 372.048,82.971 371.714 C 83.757 371.472,84.400 371.420,84.400 371.597 C 84.400 371.775,85.745 371.920,87.389 371.920 C 89.595 371.920,90.545 372.088,91.017 372.560 C 91.369 372.912,91.458 373.200,91.214 373.200 C 90.896 373.200,90.892 373.424,91.200 374.000 C 91.490 374.542,91.495 374.800,91.214 374.800 C 90.986 374.800,90.800 374.991,90.800 375.224 C 90.800 375.457,91.025 375.512,91.300 375.347 C 91.640 375.143,91.624 375.263,91.251 375.723 C 90.842 376.227,90.816 376.537,91.148 376.937 C 91.393 377.232,91.494 377.573,91.372 377.695 C 91.250 377.816,92.408 377.916,93.946 377.916 C 97.522 377.916,97.754 378.071,97.452 380.273 C 97.317 381.261,97.366 381.945,97.563 381.823 C 97.757 381.703,98.023 381.883,98.154 382.223 C 98.304 382.616,98.228 382.741,97.944 382.565 C 97.673 382.398,97.573 382.508,97.691 382.844 C 97.798 383.150,98.180 383.375,98.539 383.345 C 98.898 383.315,99.076 383.478,98.934 383.708 C 98.760 383.988,99.415 384.048,100.938 383.891 C 102.182 383.763,103.200 383.809,103.200 383.995 C 103.200 384.180,104.055 384.332,105.100 384.332 C 110.074 384.331,109.880 384.277,109.685 385.600 C 109.578 386.331,109.686 386.800,109.962 386.800 C 110.235 386.800,110.324 387.165,110.185 387.718 C 109.821 389.169,111.138 390.058,113.767 390.135 C 114.991 390.171,115.995 390.357,115.997 390.549 C 115.999 390.741,116.270 390.674,116.600 390.400 C 117.015 390.056,117.200 390.041,117.200 390.351 C 117.200 390.598,117.740 390.800,118.400 390.800 C 119.090 390.800,119.603 390.588,119.606 390.300 C 119.611 389.921,119.686 389.916,119.915 390.275 C 120.114 390.590,121.484 390.744,123.957 390.731 C 128.147 390.709,128.347 390.828,128.455 393.400 C 128.568 396.100,128.599 396.202,129.306 396.145 C 129.683 396.115,129.906 396.229,129.801 396.398 C 129.697 396.567,130.824 396.710,132.306 396.715 C 133.788 396.720,137.745 396.741,141.100 396.762 L 147.200 396.800 147.200 398.400 L 147.200 400.000 200.200 400.000 L 253.200 400.000 253.200 398.400 L 253.200 396.800 256.500 396.779 C 258.315 396.767,262.177 396.748,265.082 396.736 C 270.810 396.713,272.283 396.305,271.228 395.034 C 270.767 394.479,270.775 394.415,271.280 394.609 C 271.749 394.789,271.879 394.450,271.901 392.987 C 271.937 390.584,271.435 390.761,278.356 390.709 C 281.680 390.684,284.401 390.559,284.403 390.432 C 284.405 390.304,285.334 390.166,286.468 390.124 C 289.204 390.023,290.023 389.204,290.124 386.468 L 290.200 384.406 293.200 384.356 C 294.850 384.328,296.335 384.327,296.500 384.353 C 296.665 384.379,296.800 384.214,296.800 383.986 C 296.800 383.722,297.511 383.667,298.771 383.834 C 301.646 384.215,303.015 382.846,302.634 379.971 L 302.372 378.000 304.353 378.000 C 305.563 378.000,306.412 377.806,306.535 377.500 C 306.696 377.100,306.743 377.100,306.768 377.500 C 306.786 377.775,307.070 378.000,307.400 378.000 C 307.730 378.000,308.003 377.775,308.006 377.500 C 308.011 377.139,308.110 377.154,308.362 377.553 C 308.643 377.996,308.760 377.956,308.950 377.353 C 309.383 375.975,309.090 373.580,308.435 373.153 C 307.896 372.802,307.913 372.775,308.545 372.974 C 309.094 373.148,309.228 373.051,309.057 372.605 C 308.816 371.977,309.988 371.765,312.556 371.973 C 313.192 372.024,313.864 371.826,314.050 371.533 C 314.236 371.240,314.391 371.196,314.394 371.435 C 314.398 371.698,315.354 371.880,316.800 371.894 C 318.120 371.906,319.200 371.761,319.200 371.571 C 319.200 371.381,319.472 371.330,319.805 371.457 C 320.643 371.779,321.696 370.809,321.465 369.928 C 321.361 369.528,321.461 369.200,321.689 369.200 C 321.946 369.200,322.007 368.605,321.850 367.624 C 321.542 365.695,321.810 365.498,324.743 365.506 C 327.695 365.514,327.927 365.269,327.911 362.167 C 327.895 358.998,327.640 359.234,331.219 359.106 C 334.143 359.001,334.184 358.985,334.268 357.891 C 334.327 357.124,334.206 356.870,333.877 357.068 C 333.519 357.282,333.511 357.210,333.844 356.777 C 334.088 356.460,334.255 355.606,334.214 354.881 C 334.173 354.155,334.291 353.468,334.476 353.353 C 334.661 353.238,334.698 352.959,334.558 352.732 C 334.384 352.450,334.544 352.449,335.069 352.730 C 336.090 353.277,340.225 353.137,340.120 352.559 C 340.073 352.300,340.431 352.193,340.990 352.300 C 343.650 352.809,346.279 350.483,345.907 347.950 C 345.815 347.321,345.827 346.893,345.933 347.000 C 346.210 347.277,347.226 346.365,347.017 346.027 C 346.921 345.872,347.349 345.819,347.968 345.910 C 350.514 346.284,352.663 343.819,352.334 340.905 C 352.253 340.189,352.383 339.835,352.704 339.900 C 352.977 339.955,353.202 339.775,353.204 339.500 C 353.206 339.225,353.936 338.694,354.825 338.321 C 356.052 337.805,356.605 337.256,357.121 336.043 C 357.494 335.163,358.082 334.370,358.426 334.279 C 358.913 334.150,359.067 333.467,359.121 331.195 C 359.204 327.675,359.003 327.900,362.084 327.894 C 365.269 327.888,365.409 327.760,365.528 324.763 C 365.652 321.628,365.752 321.488,367.641 321.807 C 368.730 321.991,369.200 321.926,369.200 321.592 C 369.200 321.315,369.473 321.219,369.851 321.364 C 370.745 321.707,371.670 320.850,371.382 319.944 C 371.252 319.535,371.313 319.200,371.518 319.200 C 372.032 319.200,371.944 314.669,371.422 314.306 C 371.137 314.107,371.151 314.010,371.467 314.006 C 371.769 314.002,371.927 313.216,371.914 311.786 C 371.892 309.313,371.989 309.118,373.287 309.030 C 373.799 308.995,374.152 308.742,374.090 308.454 C 374.030 308.172,374.168 308.056,374.397 308.198 C 374.626 308.339,374.727 308.594,374.623 308.763 C 374.518 308.933,375.055 309.095,375.816 309.124 C 376.577 309.152,377.200 308.990,377.200 308.764 C 377.200 308.538,377.344 308.442,377.520 308.550 C 377.829 308.742,377.866 308.383,377.957 304.286 L 378.000 302.372 379.971 302.634 C 382.846 303.015,384.215 301.646,383.834 298.771 C 383.667 297.511,383.722 296.800,383.986 296.800 C 384.214 296.800,384.379 296.665,384.353 296.500 C 384.327 296.335,384.328 294.850,384.355 293.200 L 384.405 290.200 386.433 290.158 C 389.176 290.101,390.101 289.176,390.158 286.433 C 390.181 285.318,390.341 284.404,390.514 284.402 C 390.687 284.401,390.624 284.018,390.374 283.552 C 390.103 283.045,390.085 282.805,390.329 282.956 C 390.600 283.124,390.735 281.378,390.729 277.777 C 390.719 271.555,390.573 271.937,392.987 271.901 C 394.450 271.879,394.789 271.749,394.609 271.280 C 394.415 270.775,394.479 270.767,395.034 271.228 C 396.305 272.283,396.713 270.810,396.736 265.082 C 396.748 262.177,396.767 258.315,396.779 256.500 L 396.800 253.200 398.400 253.200 L 400.000 253.200 400.000 200.200 L 400.000 147.200 398.400 147.200 L 396.800 147.200 396.763 141.100 C 396.743 137.745,396.729 133.837,396.732 132.416 C 396.741 128.890,396.539 128.624,393.739 128.474 C 390.642 128.308,390.752 128.548,390.706 121.853 C 390.684 118.634,390.561 115.999,390.433 115.997 C 390.305 115.995,390.171 114.991,390.135 113.767 C 390.058 111.138,389.169 109.821,387.718 110.185 C 387.210 110.312,386.800 110.233,386.800 110.008 C 386.800 109.493,385.088 109.472,384.580 109.981 C 384.340 110.221,384.228 109.043,384.276 106.781 C 384.317 104.811,384.213 103.200,384.045 103.200 C 383.876 103.200,383.822 102.634,383.923 101.943 C 384.057 101.030,383.975 100.768,383.624 100.985 C 383.262 101.209,383.267 101.082,383.642 100.481 C 384.191 99.602,383.268 97.600,382.314 97.600 C 382.057 97.600,382.196 97.865,382.624 98.188 C 383.326 98.720,383.278 98.731,382.111 98.305 C 381.251 97.990,380.985 97.729,381.311 97.519 C 381.580 97.347,380.945 97.319,379.900 97.457 C 377.747 97.742,377.888 98.016,377.942 93.647 C 377.959 92.242,377.861 91.206,377.724 91.343 C 377.586 91.481,377.232 91.393,376.937 91.148 C 376.537 90.816,376.227 90.842,375.723 91.251 C 375.263 91.624,375.143 91.640,375.347 91.300 C 375.700 90.713,375.246 90.657,374.411 91.185 C 374.022 91.431,373.717 91.395,373.517 91.079 C 373.289 90.721,373.211 90.734,373.206 91.129 C 373.202 91.518,373.029 91.486,372.550 91.007 C 372.122 90.579,371.912 89.721,371.937 88.503 C 371.957 87.484,371.755 86.380,371.487 86.048 C 371.102 85.572,371.105 85.509,371.500 85.747 C 371.835 85.948,372.000 85.776,372.000 85.224 C 372.000 84.771,371.814 84.400,371.586 84.400 C 371.300 84.400,371.300 84.160,371.586 83.626 C 372.097 82.672,372.128 81.200,371.637 81.200 C 371.438 81.200,371.350 80.885,371.443 80.500 C 371.753 79.205,370.968 78.700,368.344 78.504 C 365.267 78.275,365.618 78.656,365.530 75.453 C 365.475 73.471,365.323 72.821,364.948 72.964 C 364.661 73.075,364.524 72.944,364.632 72.662 C 364.773 72.293,364.094 72.169,362.012 72.182 L 359.201 72.200 359.194 69.400 C 359.188 66.576,358.766 65.085,358.222 65.964 C 358.070 66.211,357.732 66.276,357.472 66.109 C 357.213 65.942,356.116 65.804,355.035 65.803 L 353.070 65.800 353.081 63.095 C 353.087 61.338,352.935 60.408,352.645 60.442 C 351.738 60.549,351.200 60.389,351.200 60.013 C 351.200 59.799,351.431 59.714,351.714 59.822 C 352.030 59.944,352.255 59.671,352.296 59.115 C 352.337 58.573,352.245 58.404,352.066 58.692 C 351.869 59.012,351.517 58.708,351.025 57.794 C 350.562 56.936,349.633 56.100,348.566 55.583 C 347.447 55.042,346.803 54.448,346.715 53.876 C 346.641 53.394,346.387 53.036,346.150 53.080 C 345.897 53.127,345.796 52.753,345.906 52.177 C 346.354 49.838,344.134 47.541,341.513 47.632 C 340.876 47.654,341.124 47.849,342.333 48.276 C 343.935 48.842,345.597 50.637,345.597 51.800 C 345.597 52.020,345.229 51.596,344.778 50.857 C 344.237 49.970,343.288 49.230,341.980 48.678 C 340.891 48.218,340.000 47.649,340.000 47.415 C 340.000 47.151,338.892 46.990,337.101 46.994 L 334.201 47.000 334.226 45.600 C 334.239 44.830,334.059 44.068,333.825 43.906 C 333.542 43.711,333.567 43.610,333.900 43.606 C 334.175 43.603,334.400 43.409,334.400 43.176 C 334.400 42.943,334.192 42.881,333.938 43.038 C 333.622 43.234,333.587 43.147,333.827 42.762 C 334.364 41.902,334.380 41.205,333.865 41.151 C 333.609 41.124,332.281 41.070,330.914 41.032 C 327.849 40.946,327.839 40.936,327.959 37.997 C 328.085 34.915,325.421 33.123,323.314 34.871 C 322.947 35.176,322.800 35.169,322.800 34.849 C 322.800 34.602,322.434 34.400,321.986 34.400 C 321.305 34.400,321.240 34.273,321.586 33.626 C 322.097 32.672,322.128 31.200,321.637 31.200 C 321.438 31.200,321.350 30.885,321.443 30.500 C 321.691 29.464,321.065 28.760,319.759 28.605 C 316.496 28.219,314.819 28.285,314.154 28.825 C 313.765 29.141,313.574 29.188,313.729 28.929 C 314.234 28.086,312.410 27.843,311.741 28.664 C 311.411 29.069,311.256 29.173,311.397 28.895 C 311.566 28.562,311.237 28.307,310.427 28.145 C 309.752 28.010,309.182 27.698,309.159 27.450 C 309.137 27.203,309.107 26.192,309.093 25.205 C 309.064 23.165,307.491 21.296,306.767 22.440 C 306.514 22.839,306.410 22.856,306.406 22.500 C 306.403 22.225,306.029 22.000,305.576 22.000 C 305.123 22.000,304.846 22.151,304.960 22.335 C 305.074 22.520,304.558 22.480,303.813 22.246 C 302.473 21.827,302.461 21.802,302.685 19.911 C 302.835 18.643,302.762 18.000,302.468 18.000 C 302.225 18.000,302.123 17.744,302.244 17.431 C 302.568 16.584,301.009 15.924,299.397 16.227 C 298.632 16.370,297.690 16.353,297.303 16.188 C 296.123 15.684,293.143 15.584,293.436 16.058 C 293.594 16.313,293.344 16.291,292.803 16.002 C 292.312 15.739,291.526 15.596,291.055 15.684 C 290.274 15.831,290.194 15.659,290.135 13.692 C 290.057 11.140,289.151 9.825,287.718 10.185 C 287.213 10.312,286.800 10.258,286.800 10.066 C 286.800 9.746,281.393 9.456,274.700 9.416 C 271.767 9.399,271.747 9.377,271.902 6.500 C 271.929 6.005,271.784 5.600,271.580 5.600 C 271.376 5.600,271.252 5.195,271.305 4.700 C 271.377 4.020,271.219 3.831,270.660 3.927 C 270.253 3.996,270.019 3.893,270.141 3.696 C 270.267 3.492,267.327 3.321,263.281 3.297 C 259.386 3.273,255.525 3.242,254.700 3.227 C 253.221 3.200,253.200 3.177,253.200 1.600 C 253.200 -0.894,251.318 -0.805,251.093 1.700 L 250.940 3.400 250.870 1.700 L 250.800 0.000 249.223 0.000 C 247.658 0.000,247.645 0.013,247.493 1.700 L 247.340 3.400 247.270 1.700 L 247.200 0.000 197.200 0.000 L 147.200 0.000 147.200 1.600 M210.035 55.648 C 211.551 56.359,212.557 57.160,213.160 58.135 C 213.839 59.233,214.397 59.632,215.524 59.824 C 220.190 60.619,221.179 61.339,221.498 64.173 C 221.712 66.071,221.778 66.125,224.445 66.573 C 226.310 66.886,227.114 67.812,227.551 70.149 C 227.984 72.467,227.935 72.418,230.282 72.845 C 232.492 73.248,233.997 74.652,234.006 76.322 C 234.015 77.965,234.524 78.452,236.644 78.848 C 239.093 79.305,239.895 80.107,240.352 82.556 C 240.756 84.718,241.052 85.010,243.188 85.352 C 245.089 85.656,245.912 86.598,246.357 88.981 C 246.774 91.215,247.211 91.586,249.438 91.594 C 251.474 91.601,252.278 92.415,252.751 94.949 C 253.183 97.262,253.138 97.217,255.439 97.647 C 257.914 98.109,258.336 98.524,258.637 100.791 C 258.979 103.369,259.200 103.629,261.419 104.043 C 263.802 104.488,264.744 105.311,265.048 107.212 C 265.390 109.348,265.682 109.644,267.844 110.048 C 270.293 110.505,271.095 111.307,271.552 113.756 C 271.956 115.918,272.252 116.210,274.388 116.552 C 276.283 116.855,277.112 117.797,277.551 120.149 C 277.984 122.467,277.935 122.418,280.282 122.845 C 282.492 123.248,283.997 124.652,284.006 126.322 C 284.015 127.965,284.524 128.452,286.644 128.848 C 289.093 129.305,289.895 130.107,290.352 132.556 C 290.756 134.718,291.052 135.010,293.188 135.352 C 295.089 135.656,295.912 136.598,296.357 138.981 C 296.774 141.215,297.211 141.586,299.438 141.594 C 301.474 141.601,302.278 142.415,302.751 144.949 C 303.183 147.262,303.138 147.217,305.439 147.647 C 307.914 148.109,308.336 148.524,308.637 150.791 C 308.979 153.369,309.200 153.629,311.419 154.043 C 313.827 154.493,314.744 155.312,315.061 157.294 C 315.359 159.156,316.103 160.000,317.448 160.000 C 319.904 160.000,321.573 162.007,321.604 165.000 C 321.616 166.193,322.063 166.670,323.450 166.970 C 326.183 167.563,327.048 169.457,327.626 176.114 L 328.047 180.964 329.576 182.273 C 334.069 186.118,333.912 197.565,329.324 200.600 C 328.125 201.393,328.111 201.445,327.666 206.702 C 327.088 213.540,326.514 214.638,323.129 215.369 C 322.166 215.577,322.029 215.831,321.773 217.874 C 321.473 220.277,320.289 222.000,318.937 222.000 C 318.157 222.000,315.600 224.305,315.600 225.009 C 315.600 225.931,313.742 227.167,311.996 227.405 C 308.715 227.853,308.400 227.978,308.400 228.827 C 308.400 233.362,304.939 234.130,285.493 233.908 C 269.035 233.720,267.724 233.402,266.977 229.417 C 266.735 228.127,266.596 228.021,264.859 227.793 C 261.373 227.335,260.773 227.130,259.498 225.965 C 258.796 225.324,257.989 224.800,257.704 224.800 C 257.420 224.800,256.887 224.170,256.519 223.400 C 256.152 222.630,255.645 222.000,255.392 222.000 C 255.139 222.000,254.478 221.505,253.922 220.900 C 253.366 220.295,252.359 219.501,251.684 219.135 C 251.009 218.769,250.147 217.869,249.769 217.135 C 249.390 216.401,248.735 215.556,248.312 215.257 C 247.889 214.959,247.396 214.329,247.216 213.857 C 247.037 213.386,246.797 237.030,246.684 266.400 C 246.445 328.120,246.640 325.273,242.557 326.771 C 240.524 327.516,240.701 327.238,240.336 330.265 C 240.049 332.647,239.225 334.400,238.391 334.400 C 237.890 334.400,234.439 338.045,234.187 338.842 C 233.926 339.663,232.065 340.800,230.982 340.800 C 229.839 340.800,228.072 342.364,227.796 343.619 C 227.437 345.253,226.178 345.980,222.931 346.429 C 221.180 346.670,220.057 347.035,219.800 347.446 C 217.023 351.894,213.767 352.781,200.200 352.789 C 187.889 352.796,183.299 351.697,181.416 348.290 C 180.692 346.979,180.434 346.842,178.016 346.474 C 173.901 345.849,173.274 345.489,172.726 343.437 C 172.213 341.522,171.567 341.016,169.117 340.614 C 167.626 340.369,166.000 338.866,166.000 337.733 C 166.000 336.978,163.381 334.400,162.613 334.400 C 161.501 334.400,160.464 332.904,160.207 330.929 C 159.749 327.405,159.679 327.272,157.830 326.455 C 153.754 324.651,153.966 327.738,153.723 266.762 L 153.513 214.124 152.403 215.162 C 151.792 215.733,151.172 216.597,151.025 217.082 C 150.734 218.043,148.625 219.996,147.869 220.006 C 147.447 220.011,146.746 220.641,143.426 224.000 C 140.513 226.947,138.509 227.786,133.900 227.987 C 133.735 227.994,133.600 228.366,133.600 228.813 C 133.600 233.436,132.124 233.800,113.400 233.800 C 95.045 233.800,93.152 233.403,92.159 229.351 C 91.811 227.930,91.363 227.614,89.687 227.606 C 87.678 227.597,85.664 226.588,85.125 225.321 C 84.525 223.909,82.811 222.000,82.144 222.000 C 80.144 222.000,79.059 220.510,78.612 217.148 C 78.372 215.342,78.325 215.290,76.716 215.033 C 73.852 214.575,73.252 213.206,72.765 206.016 C 72.463 201.542,72.283 200.567,71.700 200.245 C 66.993 197.638,66.557 188.580,70.907 183.751 C 72.234 182.278,72.318 182.010,72.578 178.400 C 73.188 169.936,73.961 167.823,76.702 167.133 C 78.058 166.791,78.458 166.486,78.645 165.651 C 79.668 161.083,80.142 160.484,83.062 160.069 C 84.738 159.830,85.017 159.658,85.122 158.796 C 85.536 155.424,86.394 154.505,89.549 154.057 C 91.374 153.798,91.402 153.772,91.507 152.197 C 91.743 148.655,92.207 148.133,95.544 147.656 C 97.385 147.392,97.392 147.385,97.656 145.544 C 98.133 142.207,98.655 141.743,102.197 141.507 C 103.772 141.402,103.798 141.374,104.057 139.549 C 104.505 136.394,105.424 135.536,108.796 135.122 C 109.651 135.017,109.830 134.736,110.056 133.149 C 110.513 129.939,111.490 129.095,115.200 128.705 C 116.031 128.618,116.219 128.363,116.312 127.200 C 116.543 124.319,117.694 123.195,120.800 122.818 C 122.593 122.601,122.601 122.593,122.818 120.800 C 123.195 117.694,124.319 116.543,127.200 116.312 C 128.486 116.209,128.609 116.086,128.714 114.800 C 128.982 111.529,130.039 110.402,133.200 110.018 C 134.850 109.818,135.010 109.700,135.116 108.600 C 135.416 105.505,136.503 104.394,139.600 104.018 C 141.374 103.803,141.402 103.777,141.507 102.200 C 141.743 98.652,142.310 98.017,145.600 97.618 C 147.393 97.401,147.401 97.393,147.618 95.600 C 148.017 92.310,148.652 91.743,152.200 91.507 C 153.777 91.402,153.803 91.374,154.018 89.600 C 154.394 86.503,155.505 85.416,158.600 85.116 C 159.700 85.010,159.818 84.850,160.018 83.200 C 160.402 80.039,161.529 78.982,164.800 78.714 C 166.153 78.604,166.207 78.536,166.419 76.692 C 166.712 74.148,167.713 73.196,170.449 72.863 L 172.600 72.600 172.863 70.449 C 173.196 67.715,174.149 66.712,176.688 66.419 L 178.592 66.200 178.876 64.200 C 179.246 61.590,180.352 60.633,183.666 60.058 C 185.229 59.786,186.353 59.364,186.600 58.955 C 188.020 56.604,189.709 55.470,193.000 54.659 C 195.944 53.933,207.852 54.625,210.035 55.648 M349.732 55.045 C 350.354 55.383,351.112 56.231,351.416 56.929 C 351.767 57.737,351.974 57.934,351.984 57.469 C 352.002 56.624,349.916 54.392,349.131 54.416 C 348.839 54.425,349.109 54.708,349.732 55.045 M388.799 288.602 C 388.283 289.151,387.723 289.600,387.556 289.600 C 387.388 289.600,387.735 289.099,388.326 288.488 C 388.916 287.876,389.476 287.426,389.568 287.489 C 389.661 287.552,389.314 288.052,388.799 288.602 M382.035 298.735 C 381.529 299.680,379.685 301.201,379.046 301.199 C 378.801 301.198,379.189 300.838,379.908 300.399 C 380.628 299.961,381.422 299.151,381.673 298.599 C 381.924 298.048,382.205 297.672,382.297 297.764 C 382.389 297.856,382.271 298.293,382.035 298.735 M54.416 349.131 C 54.392 349.916,56.624 352.002,57.469 351.984 C 57.934 351.974,57.737 351.767,56.929 351.416 C 56.231 351.112,55.383 350.354,55.045 349.732 C 54.708 349.109,54.425 348.839,54.416 349.131 M300.835 379.935 C 300.329 380.880,298.485 382.401,297.846 382.399 C 297.601 382.398,297.989 382.038,298.708 381.599 C 299.428 381.161,300.222 380.351,300.473 379.799 C 300.724 379.248,301.005 378.872,301.097 378.964 C 301.189 379.056,301.071 379.493,300.835 379.935 M288.251 385.501 C 287.617 386.727,286.651 387.664,285.300 388.363 C 283.889 389.092,284.247 388.569,285.775 387.668 C 286.532 387.221,287.436 386.304,287.785 385.628 C 288.135 384.953,288.511 384.400,288.621 384.400 C 288.731 384.400,288.564 384.895,288.251 385.501 M289.817 386.721 C 289.474 388.283,288.082 389.536,286.381 389.812 L 285.000 390.037 286.595 389.433 C 288.381 388.756,289.142 387.926,289.478 386.286 C 289.603 385.673,289.789 385.256,289.891 385.358 C 289.993 385.459,289.960 386.073,289.817 386.721 " stroke="none" fill="#fca404" fill-rule="evenodd"></path><path id="path2" d="M194.959 57.716 C 193.837 58.202,192.659 58.816,192.342 59.080 C 192.025 59.345,190.243 60.040,188.383 60.627 C 183.478 62.172,182.143 62.952,181.183 64.834 C 180.596 65.985,179.610 66.924,177.798 68.061 C 175.910 69.244,175.129 70.004,174.811 70.966 C 174.296 72.526,172.683 74.134,170.898 74.866 C 170.097 75.194,169.094 76.169,168.294 77.397 C 167.569 78.510,166.123 79.962,165.027 80.680 C 163.945 81.388,162.561 82.769,161.950 83.750 C 161.340 84.730,159.977 86.190,158.920 86.994 C 157.864 87.798,156.602 89.111,156.115 89.911 C 155.628 90.712,154.215 92.034,152.974 92.850 C 151.648 93.722,150.199 95.128,149.456 96.263 C 148.761 97.325,147.325 98.761,146.263 99.456 C 145.128 100.199,143.722 101.648,142.850 102.974 C 142.034 104.215,140.712 105.628,139.911 106.115 C 139.111 106.602,137.798 107.864,136.994 108.920 C 136.190 109.977,134.730 111.340,133.750 111.950 C 132.769 112.561,131.388 113.945,130.680 115.027 C 129.962 116.123,128.510 117.569,127.397 118.294 C 126.169 119.094,125.194 120.097,124.866 120.898 C 124.132 122.688,122.524 124.297,120.951 124.816 C 120.119 125.091,119.309 125.795,118.754 126.725 C 117.664 128.552,115.593 130.800,115.000 130.800 C 114.430 130.800,112.000 133.298,112.000 133.883 C 112.000 134.128,110.650 135.536,109.000 137.013 C 107.350 138.490,106.000 139.916,106.000 140.182 C 106.000 140.692,103.093 143.200,102.502 143.200 C 102.029 143.200,99.600 145.743,99.600 146.238 C 99.600 146.756,96.691 149.600,96.162 149.600 C 95.688 149.600,93.200 152.087,93.200 152.561 C 93.200 153.135,91.172 155.381,90.070 156.029 C 89.482 156.375,88.151 157.709,87.113 158.993 C 86.075 160.277,84.548 161.708,83.720 162.173 C 82.599 162.802,81.752 163.845,80.407 166.254 C 79.413 168.035,77.940 170.220,77.133 171.110 C 74.787 173.700,74.250 175.775,73.180 186.378 C 72.146 196.638,74.296 209.859,77.382 212.213 C 78.225 212.856,79.321 214.395,80.192 216.158 C 81.428 218.659,81.901 219.209,83.705 220.238 C 85.035 220.997,86.102 221.984,86.650 222.961 C 87.123 223.804,88.025 224.730,88.655 225.019 C 92.217 226.651,94.464 227.600,94.768 227.600 C 94.958 227.600,95.979 228.315,97.037 229.190 C 103.170 234.258,124.612 234.067,129.901 228.897 C 130.579 228.234,132.004 227.376,133.067 226.990 C 137.708 225.307,139.081 224.517,139.646 223.210 C 140.015 222.354,140.817 221.611,142.048 220.982 C 144.070 219.951,145.867 218.069,146.236 216.598 C 146.396 215.962,147.176 215.314,148.654 214.591 C 150.440 213.717,151.061 213.126,152.071 211.335 C 154.912 206.301,154.922 206.461,155.200 264.400 C 155.470 320.653,155.319 317.545,157.977 321.560 C 158.647 322.572,159.744 324.570,160.416 326.000 C 162.750 330.964,163.010 331.355,164.800 332.604 C 165.897 333.369,167.008 334.629,167.644 335.830 C 168.465 337.380,169.129 338.022,170.755 338.840 C 173.053 339.997,174.800 341.471,174.800 342.253 C 174.800 343.104,178.010 344.682,181.200 345.400 C 185.336 346.331,186.365 346.753,188.135 348.244 C 190.414 350.163,192.767 350.604,200.600 350.576 C 208.332 350.549,209.917 350.227,212.672 348.125 C 214.065 347.061,215.543 346.425,218.183 345.753 C 223.031 344.520,224.400 343.830,225.701 341.964 C 226.307 341.096,227.477 340.080,228.301 339.706 C 230.925 338.516,231.997 337.579,232.999 335.601 C 233.677 334.265,234.487 333.385,235.640 332.736 C 237.362 331.767,238.011 330.804,239.844 326.500 C 240.430 325.125,241.040 324.000,241.200 324.000 C 241.360 324.000,242.150 322.695,242.956 321.100 C 245.175 316.710,245.194 316.246,245.197 264.164 C 245.201 206.871,245.339 204.757,248.676 211.161 C 249.557 212.854,250.229 213.553,251.772 214.385 C 252.856 214.969,253.930 215.797,254.159 216.224 C 255.616 218.937,256.454 219.887,258.126 220.721 C 259.322 221.318,260.268 222.168,260.811 223.135 C 261.672 224.666,261.873 224.789,266.515 226.624 C 268.009 227.214,270.024 228.353,270.994 229.155 C 276.847 233.991,298.180 234.092,303.418 229.308 C 304.085 228.699,306.483 227.409,308.747 226.442 C 312.279 224.934,313.004 224.461,313.858 223.109 C 314.405 222.242,315.398 221.233,316.066 220.866 C 318.369 219.601,319.019 218.877,320.491 215.940 C 321.433 214.058,322.387 212.744,323.126 212.307 C 326.381 210.384,328.507 195.765,327.151 184.620 C 326.047 175.540,325.113 172.271,323.154 170.622 C 322.533 170.100,321.361 168.441,320.549 166.936 C 318.996 164.056,317.353 162.000,316.604 162.000 C 316.080 162.000,314.111 159.960,312.830 158.091 C 312.336 157.371,311.227 156.422,310.365 155.982 C 309.254 155.415,308.426 154.526,307.526 152.931 C 306.816 151.672,305.737 150.398,305.078 150.040 C 303.049 148.938,301.594 147.556,300.777 145.956 C 300.344 145.106,299.497 144.110,298.895 143.742 C 295.787 141.840,294.830 141.037,294.383 139.958 C 294.113 139.307,292.894 138.016,291.673 137.087 C 290.452 136.159,288.980 134.590,288.403 133.600 C 287.754 132.487,286.717 131.447,285.687 130.876 C 284.021 129.952,283.126 129.006,281.477 126.427 C 280.969 125.632,280.116 124.926,279.448 124.748 C 277.895 124.335,276.513 122.978,275.383 120.758 C 274.780 119.574,274.023 118.741,273.262 118.426 C 271.846 117.839,270.549 116.519,269.426 114.521 C 268.964 113.698,267.810 112.589,266.805 112.002 C 265.818 111.425,264.278 109.996,263.385 108.826 C 262.491 107.656,261.092 106.357,260.277 105.939 C 259.262 105.418,258.394 104.469,257.525 102.929 C 256.816 101.672,255.736 100.398,255.078 100.040 C 253.049 98.938,251.594 97.556,250.777 95.956 C 250.344 95.106,249.497 94.110,248.895 93.742 C 245.787 91.840,244.830 91.037,244.383 89.958 C 244.113 89.307,242.894 88.016,241.673 87.087 C 240.452 86.159,238.980 84.590,238.403 83.600 C 237.754 82.487,236.717 81.447,235.687 80.876 C 234.021 79.952,233.126 79.006,231.477 76.427 C 230.969 75.632,230.116 74.926,229.448 74.748 C 227.928 74.343,226.520 72.988,225.458 70.909 C 224.855 69.726,223.943 68.825,222.426 67.909 C 221.018 67.059,219.949 66.039,219.379 65.000 C 218.293 63.020,216.470 61.962,211.820 60.616 C 209.851 60.046,207.958 59.324,207.613 59.012 C 205.053 56.695,198.797 56.054,194.959 57.716 M207.665 61.819 C 213.690 63.587,215.839 64.664,217.521 66.760 C 218.248 67.666,219.863 69.082,221.111 69.907 C 222.446 70.791,223.738 72.048,224.252 72.964 C 224.733 73.821,226.050 75.140,227.182 75.899 C 228.314 76.658,229.661 77.945,230.175 78.761 C 230.690 79.577,231.774 80.774,232.583 81.422 C 233.393 82.070,234.581 83.140,235.224 83.800 C 237.087 85.713,240.287 88.946,240.964 89.600 C 241.306 89.930,242.661 91.280,243.975 92.600 C 245.289 93.920,246.957 95.587,247.682 96.305 C 248.407 97.024,249.900 98.510,251.000 99.609 C 252.100 100.708,253.540 102.137,254.200 102.785 C 254.860 103.432,256.030 104.721,256.800 105.649 C 257.570 106.576,258.765 107.671,259.456 108.081 C 260.146 108.491,261.187 109.545,261.767 110.422 C 262.348 111.300,263.724 112.665,264.825 113.456 C 265.925 114.247,267.360 115.670,268.013 116.618 C 268.665 117.567,270.216 119.121,271.459 120.071 C 272.702 121.022,274.041 122.406,274.434 123.147 C 274.828 123.888,276.051 125.101,277.153 125.842 C 278.254 126.584,279.723 128.016,280.417 129.024 C 281.110 130.032,282.550 131.484,283.617 132.250 C 284.684 133.017,286.192 134.529,286.969 135.610 C 287.746 136.692,289.079 138.038,289.930 138.601 C 290.782 139.165,291.700 140.040,291.971 140.545 C 292.241 141.051,293.369 142.260,294.476 143.232 C 295.583 144.205,297.144 145.696,297.945 146.547 C 298.745 147.397,300.182 148.837,301.138 149.747 C 302.093 150.656,303.533 152.093,304.338 152.940 C 305.142 153.787,306.674 155.343,307.741 156.399 C 308.809 157.454,310.069 158.711,310.541 159.192 C 316.433 165.194,317.555 166.541,319.189 169.579 C 320.172 171.408,321.489 173.453,322.115 174.123 C 324.945 177.153,325.955 185.333,325.052 197.916 C 324.493 205.705,324.351 206.171,321.375 210.000 C 320.434 211.210,319.176 213.241,318.579 214.514 C 317.982 215.786,316.948 217.226,316.282 217.714 C 315.616 218.201,313.885 219.776,312.435 221.214 C 310.986 222.652,309.260 224.018,308.600 224.250 C 307.940 224.482,306.140 225.080,304.600 225.578 C 303.060 226.076,300.771 227.102,299.513 227.858 C 294.389 230.938,280.312 231.280,275.892 228.432 C 273.661 226.994,269.513 225.135,268.027 224.907 C 265.909 224.581,264.588 223.788,263.118 221.958 C 262.393 221.055,261.080 219.881,260.200 219.349 C 259.320 218.817,258.060 217.640,257.400 216.733 C 256.740 215.826,255.594 214.525,254.854 213.842 C 253.292 212.400,250.287 209.411,249.054 208.073 C 247.469 206.353,247.029 206.317,245.351 207.767 L 243.800 209.108 243.573 259.054 C 243.410 294.952,243.213 309.731,242.872 311.600 C 242.075 315.971,241.544 317.550,239.593 321.347 C 238.561 323.356,237.483 325.720,237.198 326.600 C 236.496 328.764,235.799 329.761,234.242 330.828 C 233.519 331.323,232.504 332.374,231.987 333.164 C 230.477 335.468,229.112 336.816,227.400 337.693 C 226.520 338.144,225.080 339.279,224.200 340.216 C 222.798 341.707,222.079 342.076,218.400 343.190 C 216.090 343.890,211.955 345.186,209.211 346.071 C 202.446 348.251,197.430 348.205,190.800 345.902 C 188.490 345.099,185.430 344.147,184.000 343.787 C 179.887 342.749,177.524 341.592,175.800 339.770 C 174.920 338.840,173.426 337.693,172.479 337.221 C 171.349 336.657,170.353 335.717,169.578 334.481 C 168.928 333.447,167.419 331.700,166.223 330.600 C 164.323 328.852,163.842 328.072,162.398 324.400 C 161.489 322.090,160.280 319.520,159.711 318.690 C 157.490 315.447,157.502 315.703,157.213 261.600 C 156.916 205.930,157.103 209.055,153.965 207.214 C 153.155 206.739,151.277 208.020,150.059 209.878 C 149.578 210.612,148.298 211.850,147.214 212.628 C 146.130 213.407,144.618 214.915,143.853 215.980 C 143.087 217.045,141.960 218.250,141.347 218.658 C 140.734 219.066,139.348 220.300,138.268 221.400 C 135.786 223.927,134.478 224.794,133.142 224.797 C 131.868 224.801,127.215 226.734,124.537 228.372 C 119.934 231.189,105.962 231.039,101.560 228.126 C 99.698 226.894,94.602 224.800,93.459 224.799 C 92.170 224.796,90.305 223.506,88.623 221.454 C 87.796 220.444,86.234 219.074,85.152 218.408 C 83.489 217.386,82.967 216.740,81.782 214.244 C 81.011 212.620,79.683 210.498,78.831 209.530 C 73.476 203.446,73.152 179.618,78.354 174.376 C 78.929 173.797,80.277 171.720,81.348 169.761 C 82.646 167.388,84.181 165.322,85.948 163.568 C 87.407 162.120,89.145 160.320,89.810 159.568 C 90.476 158.816,91.736 157.550,92.610 156.756 C 93.485 155.962,95.013 154.432,96.006 153.356 C 97.000 152.280,98.440 150.840,99.206 150.156 C 99.973 149.471,101.413 148.031,102.406 146.956 C 103.400 145.880,104.840 144.452,105.606 143.782 C 106.373 143.112,107.723 141.762,108.607 140.782 C 109.491 139.802,110.807 138.460,111.533 137.800 C 112.258 137.140,113.945 135.500,115.281 134.156 C 116.618 132.811,118.071 131.351,118.511 130.911 C 118.951 130.471,120.366 129.051,121.656 127.756 C 122.945 126.460,124.270 125.130,124.600 124.800 C 124.930 124.470,126.305 123.100,127.656 121.756 C 129.006 120.411,130.471 118.951,130.911 118.511 C 131.351 118.071,132.811 116.618,134.156 115.281 C 135.500 113.945,137.140 112.258,137.800 111.533 C 138.460 110.807,139.802 109.491,140.782 108.607 C 141.762 107.723,143.112 106.374,143.782 105.609 C 144.452 104.843,145.900 103.373,147.000 102.341 C 149.489 100.007,150.007 99.489,152.341 97.000 C 153.373 95.900,154.843 94.452,155.609 93.782 C 156.374 93.112,157.723 91.762,158.607 90.782 C 159.491 89.802,160.807 88.460,161.533 87.800 C 162.258 87.140,163.945 85.500,165.281 84.156 C 166.618 82.811,168.071 81.351,168.511 80.911 C 168.951 80.471,170.411 79.011,171.756 77.667 C 173.100 76.323,174.650 74.723,175.200 74.112 C 175.750 73.500,176.990 72.280,177.955 71.400 C 178.920 70.520,180.810 68.700,182.155 67.356 C 184.691 64.821,186.395 63.776,189.800 62.672 C 198.387 59.887,200.702 59.776,207.665 61.819 " stroke="none" fill="#fcc868" fill-rule="evenodd"></path><path id="path3" d="M194.400 61.254 C 186.579 63.569,185.311 64.200,182.155 67.356 C 180.810 68.700,178.920 70.520,177.955 71.400 C 176.990 72.280,175.750 73.500,175.200 74.112 C 174.650 74.723,173.100 76.323,171.756 77.667 C 170.411 79.011,168.951 80.471,168.511 80.911 C 168.071 81.351,166.618 82.811,165.281 84.156 C 163.945 85.500,162.258 87.140,161.533 87.800 C 160.807 88.460,159.491 89.802,158.607 90.782 C 157.723 91.762,156.374 93.112,155.609 93.782 C 154.843 94.452,153.373 95.900,152.341 97.000 C 150.007 99.489,149.489 100.007,147.000 102.341 C 145.900 103.373,144.452 104.843,143.782 105.609 C 143.112 106.374,141.762 107.723,140.782 108.607 C 139.802 109.491,138.460 110.807,137.800 111.533 C 137.140 112.258,135.500 113.945,134.156 115.281 C 132.811 116.618,131.351 118.071,130.911 118.511 C 130.471 118.951,129.006 120.411,127.656 121.756 C 126.305 123.100,124.930 124.470,124.600 124.800 C 124.270 125.130,122.945 126.460,121.656 127.756 C 120.366 129.051,118.951 130.471,118.511 130.911 C 118.071 131.351,116.618 132.811,115.281 134.156 C 113.945 135.500,112.258 137.140,111.533 137.800 C 110.807 138.460,109.491 139.802,108.607 140.782 C 107.723 141.762,106.373 143.112,105.606 143.782 C 104.840 144.452,103.400 145.880,102.406 146.956 C 101.413 148.031,99.973 149.471,99.206 150.156 C 98.440 150.840,97.000 152.280,96.006 153.356 C 95.013 154.432,93.485 155.962,92.610 156.756 C 91.736 157.550,90.476 158.816,89.810 159.568 C 89.145 160.320,87.407 162.120,85.948 163.568 C 84.181 165.322,82.646 167.388,81.348 169.761 C 80.277 171.720,78.929 173.797,78.354 174.376 C 73.152 179.618,73.476 203.446,78.831 209.530 C 79.683 210.498,81.011 212.620,81.782 214.244 C 82.967 216.740,83.489 217.386,85.152 218.408 C 86.234 219.074,87.796 220.444,88.623 221.454 C 90.305 223.506,92.170 224.796,93.459 224.799 C 94.602 224.800,99.698 226.894,101.560 228.126 C 105.962 231.039,119.934 231.189,124.537 228.372 C 127.215 226.734,131.868 224.801,133.142 224.797 C 134.478 224.794,135.786 223.927,138.268 221.400 C 139.348 220.300,140.734 219.066,141.347 218.658 C 141.960 218.250,143.087 217.045,143.853 215.980 C 144.618 214.915,146.130 213.407,147.214 212.628 C 148.298 211.850,149.578 210.612,150.059 209.878 C 151.277 208.020,153.155 206.739,153.965 207.214 C 157.103 209.055,156.916 205.930,157.213 261.600 C 157.502 315.703,157.490 315.447,159.711 318.690 C 160.280 319.520,161.489 322.090,162.398 324.400 C 163.842 328.072,164.323 328.852,166.223 330.600 C 167.419 331.700,168.928 333.447,169.578 334.481 C 170.353 335.717,171.349 336.657,172.479 337.221 C 173.426 337.693,174.920 338.840,175.800 339.770 C 177.524 341.592,179.887 342.749,184.000 343.787 C 185.430 344.147,188.490 345.099,190.800 345.902 C 197.430 348.205,202.446 348.251,209.211 346.071 C 211.955 345.186,216.090 343.890,218.400 343.190 C 222.079 342.076,222.798 341.707,224.200 340.216 C 225.080 339.279,226.520 338.144,227.400 337.693 C 229.112 336.816,230.477 335.468,231.987 333.164 C 232.504 332.374,233.519 331.323,234.242 330.828 C 235.799 329.761,236.496 328.764,237.198 326.600 C 237.483 325.720,238.561 323.356,239.593 321.347 C 241.544 317.550,242.075 315.971,242.872 311.600 C 243.213 309.731,243.410 294.952,243.573 259.054 L 243.800 209.108 245.351 207.767 C 247.029 206.317,247.469 206.353,249.054 208.073 C 250.287 209.411,253.292 212.400,254.854 213.842 C 255.594 214.525,256.740 215.826,257.400 216.733 C 258.060 217.640,259.320 218.817,260.200 219.349 C 261.080 219.881,262.393 221.055,263.118 221.958 C 264.588 223.788,265.909 224.581,268.027 224.907 C 269.513 225.135,273.661 226.994,275.892 228.432 C 280.312 231.280,294.389 230.938,299.513 227.858 C 300.771 227.102,303.060 226.076,304.600 225.578 C 306.140 225.080,307.940 224.482,308.600 224.250 C 309.260 224.018,310.986 222.652,312.435 221.214 C 313.885 219.776,315.616 218.201,316.282 217.714 C 316.948 217.226,317.982 215.786,318.579 214.514 C 319.176 213.241,320.434 211.210,321.375 210.000 C 324.351 206.171,324.493 205.705,325.052 197.916 C 325.955 185.333,324.945 177.153,322.115 174.123 C 321.489 173.453,320.172 171.408,319.189 169.579 C 317.555 166.541,316.433 165.194,310.541 159.192 C 310.069 158.711,308.809 157.454,307.741 156.399 C 306.674 155.343,305.142 153.787,304.338 152.940 C 303.533 152.093,302.093 150.656,301.138 149.747 C 300.182 148.837,298.745 147.397,297.945 146.547 C 297.144 145.696,295.583 144.205,294.476 143.232 C 293.369 142.260,292.241 141.051,291.971 140.545 C 291.700 140.040,290.782 139.165,289.930 138.601 C 289.079 138.038,287.746 136.692,286.969 135.610 C 286.192 134.529,284.684 133.017,283.617 132.250 C 282.550 131.484,281.110 130.032,280.417 129.024 C 279.723 128.016,278.254 126.584,277.153 125.842 C 276.051 125.101,274.828 123.888,274.434 123.147 C 274.041 122.406,272.702 121.022,271.459 120.071 C 270.216 119.121,268.665 117.567,268.013 116.618 C 267.360 115.670,265.925 114.247,264.825 113.456 C 263.724 112.665,262.348 111.300,261.767 110.422 C 261.187 109.545,260.146 108.491,259.456 108.081 C 258.765 107.671,257.570 106.576,256.800 105.649 C 256.030 104.721,254.860 103.432,254.200 102.785 C 253.540 102.137,252.100 100.708,251.000 99.609 C 249.900 98.510,248.407 97.024,247.682 96.305 C 246.957 95.587,245.289 93.920,243.975 92.600 C 242.661 91.280,241.306 89.930,240.964 89.600 C 240.287 88.946,237.087 85.713,235.224 83.800 C 234.581 83.140,233.393 82.070,232.583 81.422 C 231.774 80.774,230.690 79.577,230.175 78.761 C 229.661 77.945,228.314 76.658,227.182 75.899 C 226.050 75.140,224.733 73.821,224.252 72.964 C 223.738 72.048,222.446 70.791,221.111 69.907 C 219.863 69.082,218.248 67.666,217.521 66.760 C 213.880 62.224,201.270 59.221,194.400 61.254 M210.644 64.965 C 211.548 65.337,212.527 66.090,212.821 66.639 C 213.295 67.524,214.221 68.313,218.431 71.419 C 219.042 71.870,224.051 76.730,229.564 82.219 C 241.739 94.343,239.897 92.507,248.800 101.390 C 252.870 105.450,256.714 109.274,257.342 109.886 C 257.971 110.499,260.861 113.430,263.765 116.400 C 266.669 119.370,269.935 122.637,271.023 123.659 C 272.110 124.682,276.184 128.781,280.076 132.769 C 283.968 136.756,288.073 140.747,289.199 141.637 C 290.325 142.527,291.356 143.540,291.490 143.889 C 291.786 144.662,305.074 157.963,306.450 158.865 C 306.990 159.219,308.231 160.564,309.208 161.854 C 310.184 163.144,312.123 165.332,313.517 166.715 C 315.779 168.961,317.985 172.490,317.996 173.883 C 318.000 174.411,320.586 177.158,321.683 177.800 C 323.314 178.755,324.146 191.138,323.168 199.909 C 322.669 204.383,322.645 204.442,320.838 205.673 C 319.328 206.702,317.595 209.744,316.460 213.360 C 315.746 215.633,315.644 215.747,313.677 216.481 C 312.454 216.937,311.233 217.755,310.632 218.521 C 310.081 219.225,309.384 220.084,309.084 220.431 C 308.784 220.777,308.438 221.324,308.314 221.646 C 308.053 222.328,303.639 223.702,298.829 224.597 C 295.259 225.262,292.174 226.426,291.442 227.384 C 290.670 228.394,284.917 228.305,283.200 227.257 C 281.374 226.142,278.283 225.173,271.332 223.535 C 265.988 222.277,265.651 222.140,265.453 221.156 C 265.116 219.486,263.309 217.662,261.471 217.138 C 259.300 216.520,258.400 215.724,258.400 214.427 C 258.400 212.856,257.317 211.606,255.112 210.633 C 253.529 209.935,252.924 209.371,252.068 207.799 C 249.701 203.449,244.533 203.116,242.506 207.182 C 241.845 208.509,241.787 211.899,241.600 259.868 L 241.400 311.136 240.543 312.068 C 239.225 313.502,237.253 317.724,236.604 320.500 C 235.318 326.007,234.441 327.802,232.673 328.551 C 230.926 329.290,230.001 330.432,229.176 332.871 C 228.516 334.822,228.368 334.970,226.663 335.403 C 224.775 335.883,220.739 338.710,219.718 340.268 C 218.954 341.435,218.998 341.424,210.800 342.434 C 201.503 343.580,193.088 343.307,183.386 341.545 C 181.945 341.283,181.206 340.911,180.786 340.234 C 180.464 339.714,179.331 338.629,178.268 337.822 C 176.487 336.471,175.511 335.949,172.797 334.895 C 172.071 334.613,171.663 334.017,171.321 332.737 C 170.832 330.909,170.017 329.887,167.346 327.756 C 165.756 326.487,164.399 323.475,163.815 319.920 C 163.464 317.789,161.370 312.898,160.094 311.229 L 159.000 309.800 158.800 259.000 C 158.574 201.569,158.872 206.305,155.395 204.977 C 152.292 203.792,149.818 205.015,148.140 208.565 C 147.574 209.762,147.027 210.259,145.818 210.673 C 143.656 211.414,142.474 212.629,141.857 214.746 C 141.390 216.347,141.164 216.581,139.658 217.026 C 137.155 217.765,136.177 218.562,135.365 220.528 L 134.631 222.302 129.015 223.589 C 122.300 225.127,119.101 226.158,117.150 227.413 C 115.236 228.644,110.184 228.417,108.458 227.024 C 106.877 225.746,105.765 225.363,100.934 224.426 C 94.441 223.167,93.282 222.624,90.854 219.705 C 88.941 217.404,87.098 216.000,85.991 216.000 C 85.235 216.000,84.596 215.083,84.040 213.200 C 83.001 209.676,81.093 206.341,79.523 205.302 C 77.756 204.132,77.774 204.182,77.168 198.810 C 76.327 191.361,77.338 178.000,78.743 178.000 C 79.681 178.000,82.303 174.957,82.603 173.522 C 82.923 171.989,84.668 168.800,85.188 168.800 C 85.382 168.800,87.483 166.550,89.855 163.800 C 92.228 161.050,94.310 158.800,94.482 158.800 C 94.741 158.800,98.215 155.340,109.640 143.703 C 110.168 143.165,113.750 139.603,117.600 135.788 C 126.263 127.201,127.201 126.263,135.788 117.600 C 139.603 113.750,143.165 110.168,143.703 109.640 C 145.174 108.196,158.538 94.826,159.640 93.696 C 160.168 93.155,163.030 90.321,166.000 87.398 C 168.970 84.475,173.578 79.860,176.241 77.142 C 181.009 72.274,181.601 71.738,185.223 69.009 C 186.225 68.254,187.280 67.198,187.567 66.662 C 188.938 64.100,205.574 62.877,210.644 64.965 " stroke="none" fill="#fce4ac" fill-rule="evenodd"></path><path id="path4" d="M247.309 1.600 C 247.309 2.590,247.387 2.995,247.482 2.500 C 247.578 2.005,247.578 1.195,247.482 0.700 C 247.387 0.205,247.309 0.610,247.309 1.600 M250.909 1.600 C 250.909 2.590,250.987 2.995,251.082 2.500 C 251.178 2.005,251.178 1.195,251.082 0.700 C 250.987 0.205,250.909 0.610,250.909 1.600 M128.643 4.233 C 128.267 5.213,128.379 5.478,128.837 4.692 C 129.064 4.302,129.446 4.105,129.686 4.253 C 129.949 4.415,130.009 4.339,129.838 4.062 C 129.438 3.414,128.929 3.487,128.643 4.233 M110.982 10.982 C 110.442 11.522,110.007 12.287,110.016 12.682 C 110.025 13.129,110.237 12.927,110.577 12.146 C 110.898 11.408,111.590 10.722,112.261 10.478 C 112.991 10.212,113.142 10.052,112.682 10.032 C 112.287 10.014,111.522 10.442,110.982 10.982 M98.817 16.509 C 98.277 16.783,97.710 17.455,97.557 18.003 C 97.173 19.385,97.137 21.600,97.500 21.600 C 97.665 21.600,97.800 20.796,97.800 19.814 C 97.800 17.542,98.640 16.646,100.793 16.620 C 101.676 16.609,102.398 16.465,102.399 16.300 C 102.401 15.819,99.891 15.966,98.817 16.509 M297.700 16.276 C 298.085 16.376,298.715 16.376,299.100 16.276 C 299.485 16.175,299.170 16.093,298.400 16.093 C 297.630 16.093,297.315 16.175,297.700 16.276 M91.212 22.384 C 90.888 22.589,90.744 22.878,90.893 23.026 C 91.041 23.174,91.453 23.004,91.810 22.648 C 92.513 21.944,92.157 21.787,91.212 22.384 M308.000 22.600 C 308.578 23.297,309.200 23.388,309.200 22.776 C 309.200 22.543,309.020 22.464,308.800 22.600 C 308.580 22.736,308.400 22.657,308.400 22.424 C 308.400 22.191,308.198 22.000,307.951 22.000 C 307.641 22.000,307.656 22.185,308.000 22.600 M88.714 26.425 C 88.022 27.117,87.644 27.794,87.845 27.982 C 88.302 28.410,90.800 28.029,90.800 27.531 C 90.800 27.323,91.008 27.281,91.262 27.438 C 91.578 27.634,91.613 27.547,91.372 27.162 C 91.178 26.853,91.072 26.285,91.135 25.900 C 91.317 24.794,90.076 25.063,88.714 26.425 M309.156 25.400 C 309.131 25.510,309.111 25.960,309.111 26.400 C 309.111 27.807,309.178 27.896,310.427 28.145 C 311.237 28.307,311.566 28.562,311.397 28.895 C 311.256 29.173,311.417 29.060,311.755 28.645 C 312.195 28.104,312.259 27.684,311.981 27.165 C 311.375 26.033,309.303 24.738,309.156 25.400 M313.502 28.266 C 313.779 28.377,313.903 28.633,313.779 28.834 C 313.416 29.421,313.856 29.255,314.400 28.600 C 314.819 28.095,314.748 28.005,313.949 28.032 C 313.427 28.049,313.226 28.154,313.502 28.266 M333.825 43.906 C 334.059 44.068,334.239 44.830,334.226 45.600 C 334.201 46.977,334.228 47.000,335.874 47.025 C 337.330 47.046,337.500 46.961,337.183 46.368 C 336.699 45.463,334.461 43.598,333.869 43.606 C 333.550 43.610,333.536 43.706,333.825 43.906 M340.000 47.472 C 340.000 47.675,340.891 48.218,341.980 48.678 C 343.288 49.230,344.237 49.970,344.778 50.857 C 345.229 51.596,345.597 52.020,345.597 51.800 C 345.597 50.683,343.945 48.845,342.531 48.389 C 341.689 48.118,340.775 47.717,340.500 47.499 C 340.214 47.272,340.000 47.260,340.000 47.472 M57.237 48.123 C 56.488 48.385,55.545 49.050,55.142 49.600 C 54.257 50.808,53.633 53.474,54.338 53.039 C 54.592 52.881,54.800 52.428,54.800 52.030 C 54.800 50.890,56.377 49.180,58.163 48.385 C 59.995 47.570,59.344 47.385,57.237 48.123 M50.530 54.584 C 49.036 55.234,48.170 56.462,47.840 58.400 L 47.601 59.800 48.357 58.163 C 49.187 56.368,50.899 54.800,52.030 54.800 C 52.428 54.800,52.864 54.620,53.000 54.400 C 53.350 53.834,52.029 53.932,50.530 54.584 M346.800 54.392 C 346.800 54.577,347.565 55.100,348.500 55.554 C 350.180 56.369,353.314 60.436,351.821 59.863 C 351.479 59.732,351.200 59.780,351.200 59.970 C 351.200 60.427,352.068 60.728,352.724 60.500 C 353.147 60.352,353.137 60.189,352.675 59.659 C 352.359 59.296,351.882 58.319,351.615 57.486 C 351.347 56.653,350.717 55.702,350.213 55.372 C 349.031 54.598,346.800 53.957,346.800 54.392 M193.000 54.659 C 189.709 55.470,188.020 56.604,186.600 58.955 C 186.353 59.364,185.229 59.786,183.666 60.058 C 180.352 60.633,179.246 61.590,178.876 64.200 L 178.592 66.200 176.688 66.419 C 174.149 66.712,173.196 67.715,172.863 70.449 L 172.600 72.600 170.449 72.863 C 167.713 73.196,166.712 74.148,166.419 76.692 C 166.207 78.536,166.153 78.604,164.800 78.714 C 161.529 78.982,160.402 80.039,160.018 83.200 C 159.818 84.850,159.700 85.010,158.600 85.116 C 155.505 85.416,154.394 86.503,154.018 89.600 C 153.803 91.374,153.777 91.402,152.200 91.507 C 148.652 91.743,148.017 92.310,147.618 95.600 C 147.401 97.393,147.393 97.401,145.600 97.618 C 142.310 98.017,141.743 98.652,141.507 102.200 C 141.402 103.777,141.374 103.803,139.600 104.018 C 136.503 104.394,135.416 105.505,135.116 108.600 C 135.010 109.700,134.850 109.818,133.200 110.018 C 130.039 110.402,128.982 111.529,128.714 114.800 C 128.609 116.086,128.486 116.209,127.200 116.312 C 124.319 116.543,123.195 117.694,122.818 120.800 C 122.601 122.593,122.593 122.601,120.800 122.818 C 117.694 123.195,116.543 124.319,116.312 127.200 C 116.219 128.363,116.031 128.618,115.200 128.705 C 111.490 129.095,110.513 129.939,110.056 133.149 C 109.830 134.736,109.651 135.017,108.796 135.122 C 105.424 135.536,104.505 136.394,104.057 139.549 C 103.798 141.374,103.772 141.402,102.197 141.507 C 98.655 141.743,98.133 142.207,97.656 145.544 C 97.392 147.385,97.385 147.392,95.544 147.656 C 92.207 148.133,91.743 148.655,91.507 152.197 C 91.402 153.772,91.374 153.798,89.549 154.057 C 86.394 154.505,85.536 155.424,85.122 158.796 C 85.017 159.658,84.738 159.830,83.062 160.069 C 80.142 160.484,79.668 161.083,78.645 165.651 C 78.458 166.486,78.058 166.791,76.702 167.133 C 73.961 167.823,73.188 169.936,72.578 178.400 C 72.318 182.010,72.234 182.278,70.907 183.751 C 66.557 188.580,66.993 197.638,71.700 200.245 C 72.283 200.567,72.463 201.542,72.765 206.016 C 73.252 213.206,73.852 214.575,76.716 215.033 C 78.325 215.290,78.372 215.342,78.612 217.148 C 79.059 220.510,80.144 222.000,82.144 222.000 C 82.811 222.000,84.525 223.909,85.125 225.321 C 85.664 226.588,87.678 227.597,89.687 227.606 C 91.363 227.614,91.811 227.930,92.159 229.351 C 93.152 233.403,95.045 233.800,113.400 233.800 C 132.124 233.800,133.600 233.436,133.600 228.813 C 133.600 228.366,133.735 227.994,133.900 227.987 C 138.509 227.786,140.513 226.947,143.426 224.000 C 146.746 220.641,147.447 220.011,147.869 220.006 C 148.625 219.996,150.734 218.043,151.025 217.082 C 151.172 216.597,151.792 215.733,152.403 215.162 L 153.513 214.124 153.723 266.762 C 153.966 327.738,153.754 324.651,157.830 326.455 C 159.679 327.272,159.749 327.405,160.207 330.929 C 160.464 332.904,161.501 334.400,162.613 334.400 C 163.381 334.400,166.000 336.978,166.000 337.733 C 166.000 338.866,167.626 340.369,169.117 340.614 C 171.567 341.016,172.213 341.522,172.726 343.437 C 173.274 345.489,173.901 345.849,178.016 346.474 C 180.434 346.842,180.692 346.979,181.416 348.290 C 183.299 351.697,187.889 352.796,200.200 352.789 C 213.767 352.781,217.023 351.894,219.800 347.446 C 220.057 347.035,221.180 346.670,222.931 346.429 C 226.178 345.980,227.437 345.253,227.796 343.619 C 228.072 342.364,229.839 340.800,230.982 340.800 C 232.065 340.800,233.926 339.663,234.187 338.842 C 234.439 338.045,237.890 334.400,238.391 334.400 C 239.225 334.400,240.049 332.647,240.336 330.265 C 240.701 327.238,240.524 327.516,242.557 326.771 C 246.640 325.273,246.445 328.120,246.684 266.400 C 246.797 237.030,247.037 213.386,247.216 213.857 C 247.396 214.329,247.889 214.959,248.312 215.257 C 248.735 215.556,249.390 216.401,249.769 217.135 C 250.147 217.869,251.009 218.769,251.684 219.135 C 252.359 219.501,253.366 220.295,253.922 220.900 C 254.478 221.505,255.139 222.000,255.392 222.000 C 255.645 222.000,256.152 222.630,256.519 223.400 C 256.887 224.170,257.420 224.800,257.704 224.800 C 257.989 224.800,258.796 225.324,259.498 225.965 C 260.773 227.130,261.373 227.335,264.859 227.793 C 266.596 228.021,266.735 228.127,266.977 229.417 C 267.724 233.402,269.035 233.720,285.493 233.908 C 304.939 234.130,308.400 233.362,308.400 228.827 C 308.400 227.978,308.715 227.853,311.996 227.405 C 313.742 227.167,315.600 225.931,315.600 225.009 C 315.600 224.305,318.157 222.000,318.937 222.000 C 320.289 222.000,321.473 220.277,321.773 217.874 C 322.029 215.831,322.166 215.577,323.129 215.369 C 326.514 214.638,327.088 213.540,327.666 206.702 C 328.111 201.445,328.125 201.393,329.324 200.600 C 333.912 197.565,334.069 186.118,329.576 182.273 L 328.047 180.964 327.626 176.114 C 327.048 169.457,326.183 167.563,323.450 166.970 C 322.063 166.670,321.616 166.193,321.604 165.000 C 321.573 162.007,319.904 160.000,317.448 160.000 C 316.103 160.000,315.359 159.156,315.061 157.294 C 314.744 155.312,313.827 154.493,311.419 154.043 C 309.200 153.629,308.979 153.369,308.637 150.791 C 308.336 148.524,307.914 148.109,305.439 147.647 C 303.138 147.217,303.183 147.262,302.751 144.949 C 302.278 142.415,301.474 141.601,299.438 141.594 C 297.211 141.586,296.774 141.215,296.357 138.981 C 295.912 136.598,295.089 135.656,293.188 135.352 C 291.052 135.010,290.756 134.718,290.352 132.556 C 289.895 130.107,289.093 129.305,286.644 128.848 C 284.524 128.452,284.015 127.965,284.006 126.322 C 283.997 124.652,282.492 123.248,280.282 122.845 C 277.935 122.418,277.984 122.467,277.551 120.149 C 277.112 117.797,276.283 116.855,274.388 116.552 C 272.252 116.210,271.956 115.918,271.552 113.756 C 271.095 111.307,270.293 110.505,267.844 110.048 C 265.682 109.644,265.390 109.348,265.048 107.212 C 264.744 105.311,263.802 104.488,261.419 104.043 C 259.200 103.629,258.979 103.369,258.637 100.791 C 258.336 98.524,257.914 98.109,255.439 97.647 C 253.138 97.217,253.183 97.262,252.751 94.949 C 252.278 92.415,251.474 91.601,249.438 91.594 C 247.211 91.586,246.774 91.215,246.357 88.981 C 245.912 86.598,245.089 85.656,243.188 85.352 C 241.052 85.010,240.756 84.718,240.352 82.556 C 239.895 80.107,239.093 79.305,236.644 78.848 C 234.524 78.452,234.015 77.965,234.006 76.322 C 233.997 74.652,232.492 73.248,230.282 72.845 C 227.935 72.418,227.984 72.467,227.551 70.149 C 227.114 67.812,226.310 66.886,224.445 66.573 C 221.778 66.125,221.712 66.071,221.498 64.173 C 221.179 61.339,220.190 60.619,215.524 59.824 C 214.397 59.632,213.839 59.233,213.160 58.135 C 211.321 55.160,199.342 53.095,193.000 54.659 M205.193 57.631 C 206.179 58.078,207.268 58.700,207.613 59.012 C 207.958 59.324,209.851 60.046,211.820 60.616 C 216.470 61.962,218.293 63.020,219.379 65.000 C 219.949 66.039,221.018 67.059,222.426 67.909 C 223.943 68.825,224.855 69.726,225.458 70.909 C 226.520 72.988,227.928 74.343,229.448 74.748 C 230.116 74.926,230.969 75.632,231.477 76.427 C 233.126 79.006,234.021 79.952,235.687 80.876 C 236.717 81.447,237.754 82.487,238.403 83.600 C 238.980 84.590,240.452 86.159,241.673 87.087 C 242.894 88.016,244.113 89.307,244.383 89.958 C 244.830 91.037,245.787 91.840,248.895 93.742 C 249.497 94.110,250.344 95.106,250.777 95.956 C 251.594 97.556,253.049 98.938,255.078 100.040 C 255.736 100.398,256.816 101.672,257.525 102.929 C 258.394 104.469,259.262 105.418,260.277 105.939 C 261.092 106.357,262.491 107.656,263.385 108.826 C 264.278 109.996,265.818 111.425,266.805 112.002 C 267.810 112.589,268.964 113.698,269.426 114.521 C 270.549 116.519,271.846 117.839,273.262 118.426 C 274.023 118.741,274.780 119.574,275.383 120.758 C 276.513 122.978,277.895 124.335,279.448 124.748 C 280.116 124.926,280.969 125.632,281.477 126.427 C 283.126 129.006,284.021 129.952,285.687 130.876 C 286.717 131.447,287.754 132.487,288.403 133.600 C 288.980 134.590,290.452 136.159,291.673 137.087 C 292.894 138.016,294.113 139.307,294.383 139.958 C 294.830 141.037,295.787 141.840,298.895 143.742 C 299.497 144.110,300.344 145.106,300.777 145.956 C 301.594 147.556,303.049 148.938,305.078 150.040 C 305.737 150.398,306.816 151.672,307.526 152.931 C 308.426 154.526,309.254 155.415,310.365 155.982 C 311.227 156.422,312.336 157.371,312.830 158.091 C 314.111 159.960,316.080 162.000,316.604 162.000 C 317.353 162.000,318.996 164.056,320.549 166.936 C 321.361 168.441,322.533 170.100,323.154 170.622 C 325.113 172.271,326.047 175.540,327.151 184.620 C 328.507 195.765,326.381 210.384,323.126 212.307 C 322.387 212.744,321.433 214.058,320.491 215.940 C 319.019 218.877,318.369 219.601,316.066 220.866 C 315.398 221.233,314.405 222.242,313.858 223.109 C 313.004 224.461,312.279 224.934,308.747 226.442 C 306.483 227.409,304.085 228.699,303.418 229.308 C 298.180 234.092,276.847 233.991,270.994 229.155 C 270.024 228.353,268.009 227.214,266.515 226.624 C 261.873 224.789,261.672 224.666,260.811 223.135 C 260.268 222.168,259.322 221.318,258.126 220.721 C 256.454 219.887,255.616 218.937,254.159 216.224 C 253.930 215.797,252.856 214.969,251.772 214.385 C 250.229 213.553,249.557 212.854,248.676 211.161 C 245.339 204.757,245.201 206.871,245.197 264.164 C 245.194 316.246,245.175 316.710,242.956 321.100 C 242.150 322.695,241.360 324.000,241.200 324.000 C 241.040 324.000,240.430 325.125,239.844 326.500 C 238.011 330.804,237.362 331.767,235.640 332.736 C 234.487 333.385,233.677 334.265,232.999 335.601 C 231.997 337.579,230.925 338.516,228.301 339.706 C 227.477 340.080,226.307 341.096,225.701 341.964 C 224.400 343.830,223.031 344.520,218.183 345.753 C 215.543 346.425,214.065 347.061,212.672 348.125 C 208.049 351.653,192.274 351.730,188.135 348.244 C 186.365 346.753,185.336 346.331,181.200 345.400 C 178.010 344.682,174.800 343.104,174.800 342.253 C 174.800 341.471,173.053 339.997,170.755 338.840 C 169.129 338.022,168.465 337.380,167.644 335.830 C 167.008 334.629,165.897 333.369,164.800 332.604 C 163.010 331.355,162.750 330.964,160.416 326.000 C 159.744 324.570,158.647 322.572,157.977 321.560 C 155.319 317.545,155.470 320.653,155.200 264.400 C 154.922 206.461,154.912 206.301,152.071 211.335 C 151.061 213.126,150.440 213.717,148.654 214.591 C 147.176 215.314,146.396 215.962,146.236 216.598 C 145.867 218.069,144.070 219.951,142.048 220.982 C 140.817 221.611,140.015 222.354,139.646 223.210 C 139.081 224.517,137.708 225.307,133.067 226.990 C 132.004 227.376,130.579 228.234,129.901 228.897 C 124.612 234.067,103.170 234.258,97.037 229.190 C 95.979 228.315,94.958 227.600,94.768 227.600 C 94.464 227.600,92.217 226.651,88.655 225.019 C 88.025 224.730,87.123 223.804,86.650 222.961 C 86.102 221.984,85.035 220.997,83.705 220.238 C 81.901 219.209,81.428 218.659,80.192 216.158 C 79.321 214.395,78.225 212.856,77.382 212.213 C 74.296 209.859,72.146 196.638,73.180 186.378 C 74.250 175.775,74.787 173.700,77.133 171.110 C 77.940 170.220,79.413 168.035,80.407 166.254 C 81.752 163.845,82.599 162.802,83.720 162.173 C 84.548 161.708,86.075 160.277,87.113 158.993 C 88.151 157.709,89.482 156.375,90.070 156.029 C 91.172 155.381,93.200 153.135,93.200 152.561 C 93.200 152.087,95.688 149.600,96.162 149.600 C 96.691 149.600,99.600 146.756,99.600 146.238 C 99.600 145.743,102.029 143.200,102.502 143.200 C 103.093 143.200,106.000 140.692,106.000 140.182 C 106.000 139.916,107.350 138.490,109.000 137.013 C 110.650 135.536,112.000 134.128,112.000 133.883 C 112.000 133.298,114.430 130.800,115.000 130.800 C 115.593 130.800,117.664 128.552,118.754 126.725 C 119.309 125.795,120.119 125.091,120.951 124.816 C 122.524 124.297,124.132 122.688,124.866 120.898 C 125.194 120.097,126.169 119.094,127.397 118.294 C 128.510 117.569,129.962 116.123,130.680 115.027 C 131.388 113.945,132.769 112.561,133.750 111.950 C 134.730 111.340,136.190 109.977,136.994 108.920 C 137.798 107.864,139.111 106.602,139.911 106.115 C 140.712 105.628,142.034 104.215,142.850 102.974 C 143.722 101.648,145.128 100.199,146.263 99.456 C 147.325 98.761,148.761 97.325,149.456 96.263 C 150.199 95.128,151.648 93.722,152.974 92.850 C 154.215 92.034,155.628 90.712,156.115 89.911 C 156.602 89.111,157.864 87.798,158.920 86.994 C 159.977 86.190,161.340 84.730,161.950 83.750 C 162.561 82.769,163.945 81.388,165.027 80.680 C 166.123 79.962,167.569 78.510,168.294 77.397 C 169.094 76.169,170.097 75.194,170.898 74.866 C 172.683 74.134,174.296 72.526,174.811 70.966 C 175.129 70.004,175.910 69.244,177.798 68.061 C 179.610 66.924,180.596 65.985,181.183 64.834 C 182.143 62.952,183.478 62.172,188.383 60.627 C 190.243 60.040,192.025 59.345,192.342 59.080 C 195.070 56.809,201.725 56.058,205.193 57.631 M44.753 64.333 C 43.590 65.472,43.029 66.267,43.389 66.267 C 43.725 66.267,44.000 66.131,44.000 65.966 C 44.000 65.801,44.765 65.696,45.700 65.733 C 47.042 65.786,47.363 65.673,47.225 65.200 C 47.128 64.870,47.058 64.105,47.067 63.500 C 47.091 62.063,47.060 62.074,44.753 64.333 M353.042 64.300 L 353.084 65.800 354.884 65.819 L 356.683 65.838 355.277 64.319 C 353.505 62.404,352.989 62.400,353.042 64.300 M26.425 88.714 C 25.181 89.957,24.876 90.952,25.600 91.400 C 25.820 91.536,26.000 91.472,26.000 91.259 C 26.000 91.045,26.433 90.918,26.963 90.976 C 27.794 91.067,27.952 90.884,28.111 89.641 C 28.373 87.591,27.841 87.298,26.425 88.714 M371.954 88.251 C 371.867 89.669,372.074 90.531,372.636 91.093 C 373.086 91.543,373.201 91.550,373.206 91.129 C 373.211 90.734,373.289 90.721,373.517 91.079 C 374.213 92.175,375.053 90.914,374.400 89.753 C 373.511 88.173,372.015 87.254,371.954 88.251 M18.003 97.557 C 16.546 97.963,14.984 102.404,16.300 102.399 C 16.465 102.398,16.609 101.676,16.620 100.793 C 16.646 98.640,17.542 97.800,19.814 97.800 C 20.796 97.800,21.600 97.665,21.600 97.500 C 21.600 97.137,19.385 97.173,18.003 97.557 M378.500 97.476 C 378.885 97.576,379.515 97.576,379.900 97.476 C 380.285 97.375,379.970 97.293,379.200 97.293 C 378.430 97.293,378.115 97.375,378.500 97.476 M381.200 97.886 C 381.530 98.008,382.160 98.274,382.600 98.476 C 383.387 98.838,383.388 98.834,382.624 98.222 C 382.196 97.880,381.566 97.614,381.224 97.632 C 380.685 97.659,380.682 97.693,381.200 97.886 M10.982 110.982 C 10.442 111.522,10.007 112.287,10.016 112.682 C 10.025 113.129,10.237 112.927,10.577 112.146 C 10.898 111.408,11.590 110.722,12.261 110.478 C 12.991 110.212,13.142 110.052,12.682 110.032 C 12.287 110.014,11.522 110.442,10.982 110.982 M4.003 128.789 C 3.495 129.111,3.489 129.243,3.962 129.683 C 4.315 130.012,4.420 130.027,4.250 129.725 C 4.103 129.463,4.302 129.064,4.692 128.837 C 5.081 128.610,5.220 128.422,5.000 128.418 C 4.780 128.415,4.332 128.582,4.003 128.789 M388.326 288.488 C 387.735 289.099,387.388 289.600,387.556 289.600 C 387.935 289.600,389.799 287.645,389.568 287.489 C 389.476 287.426,388.916 287.876,388.326 288.488 M16.000 298.600 C 16.000 299.370,16.070 300.000,16.156 300.000 C 16.242 300.000,16.386 299.370,16.476 298.600 C 16.566 297.830,16.496 297.200,16.320 297.200 C 16.144 297.200,16.000 297.830,16.000 298.600 M381.673 298.599 C 381.422 299.151,380.628 299.961,379.908 300.399 C 379.189 300.838,378.801 301.198,379.046 301.199 C 380.074 301.202,382.827 298.294,382.297 297.764 C 382.205 297.672,381.924 298.048,381.673 298.599 M22.000 307.951 C 22.000 308.198,22.191 308.400,22.424 308.400 C 22.657 308.400,22.736 308.580,22.600 308.800 C 22.464 309.020,22.543 309.200,22.776 309.200 C 23.388 309.200,23.297 308.578,22.600 308.000 C 22.185 307.656,22.000 307.641,22.000 307.951 M374.090 308.454 C 374.152 308.742,373.799 308.995,373.287 309.030 C 372.169 309.106,372.171 309.103,371.871 310.684 C 371.552 312.359,372.083 312.634,373.417 311.487 C 374.499 310.556,375.051 308.603,374.355 308.172 C 374.149 308.045,374.030 308.172,374.090 308.454 M25.349 309.283 C 25.229 309.477,25.417 310.071,25.766 310.604 C 26.475 311.687,27.857 312.563,28.128 312.101 C 28.370 311.688,27.970 309.208,27.655 309.167 C 26.063 308.958,25.533 308.985,25.349 309.283 M371.016 319.949 C 370.875 320.395,370.395 320.875,369.949 321.016 C 369.504 321.157,369.218 321.351,369.313 321.446 C 369.408 321.541,369.786 321.503,370.154 321.362 C 370.868 321.088,371.794 319.661,371.469 319.336 C 371.361 319.228,371.157 319.504,371.016 319.949 M44.003 334.800 C 44.353 335.449,45.884 336.901,46.716 337.374 C 47.104 337.594,47.168 337.410,46.972 336.629 C 46.749 335.744,46.821 335.627,47.456 335.833 C 48.019 336.016,48.066 335.980,47.649 335.682 C 47.346 335.466,47.221 335.089,47.372 334.845 C 47.538 334.577,47.319 334.380,46.824 334.350 C 43.837 334.169,43.676 334.194,44.003 334.800 M47.448 340.423 C 47.694 340.740,48.118 341.689,48.389 342.531 C 48.845 343.945,50.683 345.597,51.800 345.597 C 52.020 345.597,51.603 345.233,50.873 344.788 C 50.070 344.298,49.236 343.278,48.761 342.206 C 48.330 341.231,47.757 340.301,47.489 340.140 C 47.118 339.917,47.108 339.986,47.448 340.423 M54.414 348.049 C 54.995 350.076,55.876 351.098,57.486 351.615 C 58.319 351.882,59.293 352.356,59.651 352.668 C 60.215 353.159,60.333 353.151,60.544 352.601 C 60.693 352.215,60.595 352.009,60.294 352.074 C 59.166 352.317,56.392 350.236,55.564 348.526 C 54.594 346.521,53.892 346.230,54.414 348.049 M334.442 352.683 C 334.471 352.857,334.454 353.090,334.405 353.200 C 333.336 355.583,334.659 356.522,336.359 354.586 C 337.811 352.931,337.850 352.809,336.841 353.073 C 336.423 353.183,335.701 353.068,335.235 352.819 C 334.770 352.570,334.412 352.508,334.442 352.683 M62.800 353.413 C 62.800 353.665,63.486 354.506,64.324 355.282 L 65.849 356.692 65.824 355.179 C 65.811 354.347,65.678 353.544,65.529 353.395 C 65.050 352.917,62.800 352.931,62.800 353.413 M87.960 372.025 C 87.275 372.448,89.668 374.800,90.783 374.800 C 91.504 374.800,91.565 374.683,91.200 374.000 C 90.892 373.424,90.896 373.200,91.214 373.200 C 91.492 373.200,91.457 373.000,91.122 372.664 C 90.450 371.993,88.612 371.622,87.960 372.025 M310.122 371.888 C 309.204 372.002,308.906 372.211,309.066 372.628 C 309.230 373.054,309.090 373.140,308.545 372.951 C 307.837 372.705,307.837 372.722,308.561 373.286 C 308.980 373.612,309.194 374.086,309.038 374.339 C 308.439 375.308,310.106 374.756,311.257 373.604 C 312.290 372.572,312.529 371.467,311.676 371.664 C 311.524 371.699,310.825 371.800,310.122 371.888 M97.293 379.600 C 97.293 380.370,97.375 380.685,97.476 380.300 C 97.576 379.915,97.576 379.285,97.476 378.900 C 97.375 378.515,97.293 378.830,97.293 379.600 M300.473 379.799 C 300.222 380.351,299.428 381.161,298.708 381.599 C 297.989 382.038,297.601 382.398,297.846 382.399 C 298.874 382.402,301.627 379.494,301.097 378.964 C 301.005 378.872,300.724 379.248,300.473 379.799 M287.785 385.628 C 287.436 386.304,286.532 387.221,285.775 387.668 C 284.247 388.569,283.889 389.092,285.300 388.363 C 286.913 387.528,289.535 384.400,288.621 384.400 C 288.511 384.400,288.135 384.953,287.785 385.628 M289.478 386.286 C 289.142 387.926,288.381 388.756,286.595 389.433 L 285.000 390.037 286.381 389.812 C 288.474 389.472,290.912 386.378,289.891 385.358 C 289.789 385.256,289.603 385.673,289.478 386.286 " stroke="none" fill="#fcb414" fill-rule="evenodd"></path></g></svg>